<svg xmlns="http://www.w3.org/2000/svg" viewBox="0 0 1405 1857">
<path d="M305.877 0.522C288.544 3.322 267.744 12.388 253.077 23.588C208.677 57.322 174.277 128.922 159.744 218.122C154.277 251.855 150.544 298.655 150.544 334.388C150.544 376.522 155.477 430.388 162.544 467.589C164.144 475.855 164.944 483.188 164.277 483.722C163.744 484.255 157.211 489.588 149.877 495.455C124.811 515.455 96.144 546.255 76.411 574.388C38.544 628.122 14.011 689.188 3.744 755.322C-0.256 781.455 -1.323 834.255 1.877 860.39C8.944 920.66 27.077 971.59 58.144 1018.26L68.277 1033.32L65.344 1038.26C44.544 1073.19 26.811 1123.72 18.544 1172.26C12.011 1210.66 11.211 1220.92 11.211 1272.39C11.211 1324.26 11.877 1334.52 18.011 1370.39C25.344 1413.32 40.277 1458.79 56.944 1489.06C62.411 1498.92 75.744 1519.46 77.344 1520.52C77.877 1520.79 76.277 1525.72 73.744 1531.46C54.544 1573.46 38.144 1629.32 31.344 1676.39C26.544 1708.66 25.877 1719.06 25.877 1753.06C25.877 1796.39 28.277 1817.46 37.344 1851.99L38.677 1857.06H95.744H152.944L149.211 1849.99C126.144 1807.32 124.011 1728.12 143.877 1649.06C152.944 1612.52 163.211 1585.72 182.411 1548.79L193.877 1526.39V1512.66C193.877 1499.86 193.611 1498.39 189.477 1489.99C186.277 1483.59 182.011 1478.12 174.411 1470.66C161.477 1458.12 152.144 1444.92 144.677 1428.66C111.877 1357.46 105.477 1251.72 128.544 1161.59C138.144 1123.99 154.011 1090.52 170.677 1072.26C182.011 1059.72 187.877 1045.72 187.877 1031.19C187.877 1016.12 182.544 1003.72 170.544 990.79C136.144 953.99 114.944 909.19 107.344 857.06C96.544 782.788 116.144 701.855 160.677 637.722C204.277 574.788 265.477 534.388 333.877 523.589C349.211 521.055 377.877 521.455 393.877 524.388C411.344 527.455 422.277 526.522 433.477 521.188C447.344 514.655 454.277 506.522 462.411 487.855C469.611 471.188 475.211 462.122 490.277 443.322C508.411 420.788 525.877 405.455 553.877 386.922C585.877 365.988 622.277 350.788 658.544 343.455C671.744 340.788 677.877 340.388 702.544 340.388C727.21 340.388 733.34 340.788 746.54 343.455C799.74 354.255 852.54 381.722 894.68 420.655C903.74 429.055 925.48 455.988 932.41 467.188C935.08 471.588 939.74 480.922 942.68 487.855C950.81 506.522 957.74 514.655 971.61 521.188C982.41 526.388 993.74 527.455 1010.54 524.655C1037.08 520.122 1057.48 520.522 1083.48 525.855C1172.01 543.722 1249.08 616.655 1283.21 714.388C1312.94 800.122 1304.54 889.86 1260.28 958.39C1252.81 969.99 1245.34 979.32 1234.54 990.79C1211.21 1015.72 1211.21 1046.66 1234.41 1072.26C1272.54 1113.99 1296.41 1216.66 1289.21 1307.19C1284.41 1366.92 1269.08 1420.39 1248.01 1450.66C1244.28 1455.99 1236.54 1465.06 1230.68 1470.66C1223.08 1478.12 1218.81 1483.59 1215.61 1489.99C1211.48 1498.39 1211.21 1499.86 1211.21 1512.66V1526.39L1222.68 1548.79C1241.88 1585.72 1252.14 1612.52 1261.21 1649.06C1280.81 1727.06 1279.08 1804.66 1256.68 1848.79C1254.81 1852.52 1253.21 1855.99 1253.21 1856.39C1253.21 1856.79 1278.68 1857.06 1309.88 1857.06H1366.41L1367.88 1851.32C1368.68 1848.26 1370.01 1843.59 1370.68 1840.92C1372.14 1835.06 1375.08 1817.72 1377.48 1801.06C1379.74 1784.26 1379.74 1722.39 1377.48 1703.72C1368.94 1635.99 1354.68 1582.26 1331.34 1531.46C1328.81 1525.72 1327.21 1520.79 1327.74 1520.52C1328.41 1520.12 1332.14 1514.79 1336.14 1508.79C1365.21 1464.79 1383.08 1409.46 1392.14 1336.39C1394.54 1316.26 1394.54 1229.72 1392.14 1210.39C1385.74 1160.52 1378.01 1126.66 1365.21 1092.39C1359.88 1078.12 1345.74 1047.99 1339.74 1038.26L1336.81 1033.32L1346.94 1018.26C1378.01 971.59 1396.14 920.66 1403.21 860.39C1406.41 834.255 1405.34 781.455 1401.34 755.322C1390.94 689.055 1366.54 628.255 1328.68 574.388C1308.94 546.255 1280.28 515.455 1255.21 495.455C1247.88 489.588 1241.34 484.255 1240.81 483.722C1240.14 483.188 1240.94 475.855 1242.54 467.589C1258.68 383.455 1258.14 278.522 1241.21 196.522C1226.54 125.055 1199.88 68.255 1165.48 35.455C1138.01 9.322 1110.01 -1.878 1076.41 0.255C999.34 4.788 937.21 93.455 912.68 233.188C908.68 255.722 905.21 282.122 905.21 289.322C905.21 292.122 904.68 294.388 904.01 294.388C903.34 294.388 898.14 291.722 892.54 288.388C833.08 253.188 766.94 234.388 702.544 234.388C638.144 234.388 572.011 253.188 512.544 288.388C506.944 291.722 501.744 294.388 501.077 294.388C500.411 294.388 499.877 292.122 499.877 289.322C499.877 281.855 496.277 254.655 492.411 233.188C470.144 107.722 419.077 24.655 351.211 3.722C341.877 0.922 315.344 -0.945 305.877 0.522ZM328.544 109.055C347.744 124.255 369.077 167.722 381.344 216.388C383.611 225.188 386.011 235.322 386.677 239.055C387.211 242.655 388.677 250.788 389.877 257.055C395.077 285.322 397.477 315.855 397.744 353.055L397.877 389.722L388.677 403.322L379.477 417.055H358.011C332.944 417.055 308.011 420.255 284.144 426.655C275.611 428.788 267.344 430.922 265.744 431.322C263.211 431.855 262.811 431.055 261.344 420.122C253.477 360.788 253.877 295.055 262.544 240.388C272.144 179.455 294.544 124.255 316.411 107.988C321.611 104.122 322.544 104.255 328.544 109.055ZM1088.81 108.122C1102.01 117.855 1116.54 143.722 1127.34 176.788C1149.08 242.922 1155.21 333.722 1143.74 420.122C1142.28 431.055 1141.88 431.855 1139.34 431.322C1137.74 430.922 1129.48 428.788 1120.94 426.655C1097.08 420.255 1072.14 417.055 1047.08 417.055H1025.61L1016.41 403.322L1007.21 389.722L1007.34 353.055C1007.61 301.322 1012.41 260.922 1023.88 215.988C1036.01 167.722 1057.48 124.255 1076.54 109.055C1082.54 104.255 1083.48 104.122 1088.81 108.122Z"/>
<path d="M681.877 779.189C652.944 781.989 645.077 783.055 631.21 785.855C608.677 790.522 578.544 800.922 557.61 811.189C484.81 846.79 434.677 906.12 419.344 974.79C416.277 988.39 415.877 992.92 415.877 1015.86C415.877 1038.52 416.277 1043.46 419.21 1056.39C439.61 1146.12 522.277 1212.39 629.21 1224.52C652.41 1227.06 752.68 1227.06 775.88 1224.52C861.74 1214.79 935.61 1168.26 968.81 1102.92C977.61 1085.46 981.88 1074.12 985.88 1056.39C988.81 1043.46 989.21 1038.52 989.21 1015.86C989.21 992.92 988.81 988.39 985.74 974.79C963.48 875.06 866.68 796.522 748.01 781.589C732.54 779.722 692.01 778.122 681.877 779.189ZM731.74 851.72C771.34 855.99 811.21 870.12 843.21 891.46C860.41 902.92 884.68 926.92 895.08 942.66C907.88 962.12 915.21 981.99 918.54 1006.12C920.01 1017.19 919.21 1025.59 915.21 1043.46C908.94 1070.12 889.48 1097.99 863.21 1117.46C850.94 1126.39 825.48 1139.32 809.88 1144.39C780.28 1153.86 760.94 1155.59 691.877 1155.06C646.81 1154.66 638.81 1154.26 625.877 1151.86C581.744 1143.59 546.81 1125.99 521.477 1099.19C500.944 1077.59 491.61 1057.86 486.544 1025.99C484.277 1011.19 488.544 986.66 497.21 965.99C507.744 940.79 534.944 909.46 561.877 891.46C593.077 870.66 634.144 855.86 671.877 851.86C686.41 850.26 717.21 850.26 731.74 851.72Z"/>
<path d="M651.61 949.06C641.477 954.52 634.41 968.39 636.543 978.66C638.943 989.72 648.677 1000.92 663.877 1010.12C672.01 1015.06 672.543 1015.72 672.943 1020.66C673.21 1023.59 672.143 1031.99 670.677 1039.46C669.077 1046.79 667.877 1054.52 667.877 1056.66C668.01 1062.39 673.343 1071.72 678.943 1076.26C683.877 1080.26 684.81 1080.39 698.677 1080.79C711.34 1081.19 714.01 1080.92 719.08 1078.52C732.14 1072.12 735.48 1060.39 730.68 1037.86C726.68 1019.06 727.48 1016.12 737.48 1010.39C748.01 1004.26 759.21 993.46 762.54 986.12C768.94 972.12 763.08 956.26 748.94 948.92C745.48 947.19 741.21 946.39 734.94 946.39C725.21 946.39 718.94 948.66 707.48 955.99L700.943 960.12L696.81 957.59C679.877 947.59 676.81 946.39 666.543 946.52C659.21 946.52 655.21 947.19 651.61 949.06Z"/>
<path d="M327.878 794.255C304.278 801.722 286.678 819.055 277.611 843.72C273.211 855.46 271.078 873.99 272.945 883.99C277.345 907.86 296.945 929.59 319.211 935.59C347.211 942.92 368.145 938.12 386.678 919.72C397.478 909.19 403.345 899.99 409.211 885.06C413.478 874.52 413.745 872.66 413.745 857.72L413.878 841.72L408.278 830.255C399.345 812.122 383.211 798.655 364.545 793.722C354.011 791.055 337.078 791.189 327.878 794.255Z"/>
<path d="M1040.01 793.855C1021.74 798.789 1005.48 812.389 996.81 830.255L991.21 841.72L991.34 857.72C991.34 872.66 991.61 874.52 995.88 885.06C1001.74 899.99 1007.61 909.19 1018.41 919.72C1036.94 938.12 1057.88 942.92 1085.88 935.59C1102.01 931.32 1118.14 917.72 1125.88 901.86C1132.54 888.39 1134.14 878.66 1132.01 863.32C1127.08 828.255 1106.54 802.789 1076.01 793.855C1067.08 791.189 1049.74 791.189 1040.01 793.855Z"/>
</svg>
